<svg xmlns="http://www.w3.org/2000/svg" viewBox="0 0 24 24" fill="none">
  <path d="M23.546 10.93L13.067.452c-.604-.603-1.582-.603-2.188 0L8.708 2.627l2.76 2.76c.645-.215 1.379-.07 1.889.441.516.515.658 1.258.428 1.9l2.658 2.66c.645-.23 1.387-.87 1.9.428.721.721.721 1.884 0 2.604-.719.719-1.881.719-2.6 0-.539-.541-.67-1.337-.396-1.966L12.72 8.955v6.333c.176.086.342.203.488.348.713.721.713 1.883 0 2.6-.719.721-1.889.721-2.609 0-.719-.719-.719-1.879 0-2.598.182-.18.387-.316.605-.406V8.835c-.215-.091-.424-.222-.6-.401-.548-.548-.676-1.342-.396-1.975l-2.749-2.749L.452 10.902c-.603.604-.603 1.582 0 2.188l10.48 10.477c.604.604 1.582.604 2.186 0l10.428-10.43c.603-.606.603-1.584 0-2.187" fill="#F05032"/>
</svg>