<svg xmlns="http://www.w3.org/2000/svg" viewBox="0 0 24 24" fill="none">
  <path d="M12.504 0c-.155 0-.315.008-.48.021C5.683.317 1.87 5.476 1.87 11.903c0 3.205 1.29 6.114 3.392 8.221 1.294 1.295 2.908 2.309 4.748 2.901 1.84.592 3.903.645 5.912.152 2.009-.493 3.849-1.507 5.143-2.801 2.102-2.107 3.392-5.016 3.392-8.221 0-6.427-3.813-11.586-10.154-11.882C13.148.008 12.825 0 12.504 0zm-.01 4.3c.48 0 .869.389.869.869s-.389.869-.869.869-.869-.389-.869-.869.389-.869.869-.869zm-2.812 1.518c.239 0 .434.194.434.434s-.194.434-.434.434-.434-.194-.434-.434.194-.434.434-.434zm5.624 0c.239 0 .434.194.434.434s-.194.434-.434.434-.434-.194-.434-.434.194-.434.434-.434zM12 7.304c1.132 0 2.163.319 3.045.869-.069.239-.194.456-.369.63-.175.175-.391.3-.63.369-.882-.55-1.913-.869-3.045-.869s-2.163.319-3.045.869c-.239-.069-.456-.194-.63-.369-.175-.175-.3-.391-.369-.63.882-.55 1.913-.869 3.045-.869z" fill="#fcc624"/>
  <path d="M9.5 10.5c0 .828-.672 1.5-1.5 1.5s-1.5-.672-1.5-1.5.672-1.5 1.5-1.5 1.5.672 1.5 1.5zm8.5 0c0 .828-.672 1.5-1.5 1.5s-1.5-.672-1.5-1.5.672-1.5 1.5-1.5 1.5.672 1.5 1.5z" fill="#000"/>
</svg>