<svg xmlns="http://www.w3.org/2000/svg" viewBox="0 0 24 24" fill="none">
  <path d="M21.511 18.508c.16 2.324-.623 3.895-1.484 4.756-.492.492-1.075.736-1.707.736H2.243c-.632 0-1.215-.244-1.707-.736C-.325 22.403-1.108 20.832-.948 18.508L1.459 2.244C1.62-.08 2.403-1.651 3.264-2.512c.492-.492 1.075-.736 1.707-.736h14.058c.632 0 1.215.244 1.707.736.861.861 1.644 2.432 1.804 4.756L21.511 18.508z" fill="#000"/>
  <path d="M14.708 8.953h-5.416v2.094h5.416c1.158 0 2.094.936 2.094 2.094 0 1.158-.936 2.094-2.094 2.094H9.292v2.094h5.416c2.316 0 4.188-1.872 4.188-4.188s-1.872-4.188-4.188-4.188z" fill="#fff"/>
  <circle cx="11.4" cy="6.859" r="2.094" fill="#fff"/>
</svg>